<svg width="120" height="40" viewBox="0 0 120 40" fill="none" xmlns="http://www.w3.org/2000/svg">
<path d="M110.135 0H9.53468C9.16798 0 8.80568 0 8.43995 0.00213C8.1338 0.00413 7.83009 0.00994 7.521 0.01483C6.84951 0.0227318 6.17961 0.0818063 5.5171 0.19154C4.85552 0.303663 4.21467 0.515046 3.61622 0.81854C3.0185 1.1246 2.47234 1.5223 1.99757 1.9972C1.5203 2.47077 1.12246 3.01815 0.81935 3.61829C0.5154 4.21724 0.30464 4.85907 0.19435 5.52161C0.0830109 6.18331 0.0230984 6.85265 0.01515 7.52361C0.00587 7.83021 0.00489 8.13783 0 8.44447V31.5587C0.00489 31.8692 0.00587 32.17 0.01515 32.4806C0.0231008 33.1516 0.0830134 33.8209 0.19435 34.4825C0.304336 35.1455 0.515108 35.7877 0.81935 36.3868C1.12233 36.985 1.52022 37.5302 1.99757 38.0011C2.47054 38.4781 3.01705 38.8761 3.61622 39.1798C4.21467 39.4841 4.85545 39.6968 5.5171 39.8106C6.17972 39.9195 6.84956 39.9786 7.521 39.9874C7.83009 39.9942 8.1338 39.9981 8.43995 39.9981C8.80567 40.0001 9.168 40.0001 9.53468 40.0001H110.135C110.494 40.0001 110.859 40.0001 111.219 39.9981C111.523 39.9981 111.836 39.9942 112.141 39.9874C112.811 39.9791 113.479 39.92 114.141 39.8106C114.804 39.696 115.448 39.4834 116.049 39.1798C116.647 38.8759 117.193 38.478 117.666 38.0011C118.142 37.5284 118.541 36.9836 118.848 36.3868C119.15 35.7872 119.358 35.1451 119.467 34.4825C119.578 33.8208 119.64 33.1516 119.652 32.4806C119.656 32.17 119.656 31.8692 119.656 31.5587C119.664 31.1954 119.664 30.8341 119.664 30.4649V9.53626C119.664 9.17005 119.664 8.80677 119.656 8.44447C119.656 8.13783 119.656 7.83021 119.652 7.52357C119.64 6.85255 119.578 6.18337 119.467 5.52157C119.358 4.85941 119.149 4.21763 118.848 3.61825C118.23 2.41533 117.252 1.43616 116.049 0.81845C115.448 0.515697 114.804 0.30437 114.141 0.19145C113.48 0.0812328 112.811 0.0221378 112.141 0.01469C111.836 0.00981 111.523 0.00395 111.219 0.002C110.859 0 110.494 0 110.135 0Z" fill="#A6A6A6"/>
<path d="M8.44487 39.125C8.14019 39.125 7.84287 39.1211 7.54058 39.1143C6.91436 39.1061 6.2896 39.0516 5.67144 38.9512C5.09503 38.8519 4.53664 38.6673 4.0147 38.4033C3.49754 38.1415 3.02585 37.7983 2.6177 37.3867C2.20364 36.98 1.85891 36.5082 1.59719 35.9902C1.33258 35.4688 1.14945 34.9099 1.05419 34.333C0.951311 33.7131 0.895651 33.0863 0.887687 32.458C0.881347 32.2471 0.873047 31.5449 0.873047 31.5449V8.44434C0.873047 8.44434 0.881887 7.75293 0.887737 7.5498C0.895363 6.92248 0.950699 6.29665 1.05327 5.67773C1.14871 5.09925 1.33197 4.53875 1.59673 4.01563C1.85749 3.49794 2.2003 3.02586 2.61187 2.61768C3.02297 2.20562 3.49617 1.8606 4.01421 1.59521C4.53495 1.33209 5.09228 1.14873 5.66753 1.05127C6.28772 0.949836 6.91465 0.894996 7.54304 0.88721L8.44536 0.875H111.214L112.127 0.8877C112.75 0.895099 113.371 0.94945 113.985 1.05029C114.566 1.14898 115.13 1.33362 115.656 1.59814C116.694 2.13299 117.539 2.97916 118.071 4.01807C118.332 4.53758 118.512 5.09351 118.607 5.66699C118.71 6.29099 118.768 6.92174 118.78 7.5542C118.783 7.8374 118.783 8.1416 118.783 8.44434C118.791 8.81934 118.791 9.17627 118.791 9.53613V30.4648C118.791 30.8281 118.791 31.1826 118.783 31.54C118.783 31.8652 118.783 32.1631 118.779 32.4697C118.768 33.0909 118.711 33.7104 118.608 34.3232C118.515 34.9043 118.333 35.4675 118.068 35.9932C117.805 36.5056 117.462 36.9733 117.053 37.3789C116.644 37.7927 116.172 38.1379 115.653 38.4014C115.128 38.6674 114.566 38.8527 113.985 38.9512C113.367 39.0522 112.742 39.1067 112.116 39.1143C111.823 39.1211 111.517 39.125 111.219 39.125L110.135 39.127L8.44487 39.125Z" fill="black"/>
<path d="M24.769 20.3006C24.7909 18.6041 25.6802 17.0371 27.1256 16.1485C26.2096 14.8404 24.7305 14.0408 23.1344 13.9908C21.4552 13.8146 19.8272 14.9957 18.9715 14.9957C18.0992 14.9957 16.7817 14.0083 15.363 14.0375C13.4963 14.0978 11.7982 15.1334 10.8901 16.7654C8.95607 20.1138 10.3987 25.0349 12.2513 27.7415C13.1782 29.0668 14.2615 30.5473 15.6789 30.4948C17.066 30.4372 17.584 29.6103 19.2583 29.6103C20.9171 29.6103 21.4031 30.4948 22.8493 30.4614C24.3377 30.4372 25.2754 29.1302 26.1698 27.7923C26.8358 26.8479 27.3483 25.8042 27.6882 24.6997C25.9205 23.9521 24.7711 22.2199 24.769 20.3006Z" fill="white"/>
<path d="M22.0376 12.2108C22.8491 11.2366 23.2489 9.98445 23.1521 8.72021C21.9123 8.85044 20.767 9.44299 19.9445 10.3798C19.1323 11.3041 18.7209 12.5134 18.8008 13.7412C20.0573 13.7542 21.2502 13.1901 22.0376 12.2108Z" fill="white"/>
<path d="M42.3022 27.1397H37.5688L36.4321 30.4961H34.4272L38.9106 18.0781H40.9936L45.477 30.4961H43.438L42.3022 27.1397ZM38.0591 25.5908H41.8111L39.9615 20.1436H39.9097L38.0591 25.5908Z" fill="white"/>
<path d="M55.1597 25.9697C55.1597 28.7832 53.6538 30.5908 51.3814 30.5908C50.2068 30.6522 49.1003 30.037 48.5327 29.0068H48.4897V33.4912H46.6313V21.4424H48.4302V22.9482H48.4644C49.0572 21.9245 50.1648 21.3095 51.3472 21.3476C53.645 21.3476 55.1597 23.164 55.1597 25.9697ZM53.2495 25.9697C53.2495 24.1367 52.3023 22.9316 50.857 22.9316C49.437 22.9316 48.482 24.1621 48.482 25.9697C48.482 27.7939 49.437 29.0156 50.857 29.0156C52.3023 29.0156 53.2495 27.8193 53.2495 25.9697Z" fill="white"/>
<path d="M65.1245 25.9697C65.1245 28.7832 63.6187 30.5908 61.3462 30.5908C60.1716 30.6522 59.0652 30.037 58.4976 29.0068H58.4546V33.4912H56.5962V21.4423H58.395V22.9482H58.4292C59.022 21.9245 60.1296 21.3095 61.312 21.3476C63.6099 21.3476 65.1245 23.164 65.1245 25.9697ZM63.2144 25.9697C63.2144 24.1367 62.2671 22.9316 60.8218 22.9316C59.4019 22.9316 58.4468 24.1621 58.4468 25.9697C58.4468 27.7939 59.4019 29.0156 60.8218 29.0156C62.2671 29.0156 63.2144 27.8193 63.2144 25.9697Z" fill="white"/>
<path d="M71.7105 27.0362C71.8482 28.2676 73.0445 29.0762 74.6792 29.0762C76.2456 29.0762 77.3726 28.2676 77.3726 27.1572C77.3726 26.1934 76.6929 25.6162 75.0835 25.2207L73.4742 24.833C71.1939 24.2822 70.1353 23.2158 70.1353 21.4854C70.1353 19.3428 72.0025 17.8711 74.6538 17.8711C77.2778 17.8711 79.0767 19.3428 79.1372 21.4854H77.2612C77.1489 20.2461 76.1245 19.4981 74.6274 19.4981C73.1304 19.4981 72.106 20.2549 72.106 21.3565C72.106 22.2344 72.7603 22.751 74.3608 23.1465L75.729 23.4824C78.2769 24.0849 79.3355 25.1084 79.3355 26.9248C79.3355 29.248 77.4849 30.7031 74.5415 30.7031C71.7876 30.7031 69.9282 29.2822 69.8081 27.0361L71.7105 27.0362Z" fill="white"/>
<path d="M83.3462 19.2998V21.4424H85.0679V22.9141H83.3462V27.9053C83.3462 28.6807 83.6909 29.042 84.4477 29.042C84.6521 29.0384 84.8562 29.0241 85.0591 28.999V30.4619C84.7188 30.5255 84.373 30.5543 84.0269 30.5478C82.1939 30.5478 81.479 29.8593 81.479 28.1035V22.9141H80.1626V21.4424H81.479V19.2998H83.3462Z" fill="white"/>
<path d="M86.0649 25.9697C86.0649 23.1211 87.7427 21.3311 90.3589 21.3311C92.9839 21.3311 94.6538 23.1211 94.6538 25.9697C94.6538 28.8262 92.9927 30.6084 90.3589 30.6084C87.726 30.6084 86.0649 28.8262 86.0649 25.9697ZM92.7602 25.9697C92.7602 24.0156 91.8647 22.8623 90.3589 22.8623C88.853 22.8623 87.9585 24.0244 87.9585 25.9697C87.9585 27.9316 88.853 29.0762 90.3589 29.0762C91.8647 29.0762 92.7602 27.9316 92.7602 25.9697Z" fill="white"/>
<path d="M96.186 21.4425H97.9585V22.9835H98.0015C98.2487 21.9915 99.1576 21.3088 100.179 21.3478C100.393 21.347 100.607 21.3703 100.816 21.4171V23.1554C100.546 23.0728 100.264 23.0349 99.981 23.0431C99.4346 23.0209 98.9059 23.2387 98.5335 23.6391C98.1612 24.0396 97.9826 24.5828 98.0444 25.1261V30.4962H96.186V21.4425Z" fill="white"/>
<path d="M109.384 27.8369C109.134 29.4805 107.534 30.6084 105.486 30.6084C102.852 30.6084 101.217 28.8437 101.217 26.0127C101.217 23.1729 102.861 21.3311 105.408 21.3311C107.913 21.3311 109.488 23.0518 109.488 25.7969V26.4336H103.093V26.5459C103.034 27.2199 103.266 27.8871 103.732 28.3778C104.198 28.8684 104.853 29.1352 105.529 29.1103C106.431 29.1948 107.281 28.677 107.62 27.8369L109.384 27.8369ZM103.102 25.1348H107.628C107.662 24.5291 107.442 23.9368 107.02 23.5006C106.599 23.0644 106.014 22.8239 105.408 22.8369C104.796 22.8333 104.209 23.0739 103.776 23.5054C103.343 23.9369 103.1 24.5235 103.102 25.1348Z" fill="white"/>
<path d="M37.8262 8.7309C38.6151 8.67429 39.3879 8.97445 39.9317 9.54877C40.4756 10.1231 40.7333 10.911 40.6338 11.6957C40.6338 13.602 39.6035 14.6977 37.8262 14.6977H35.6709V8.7309H37.8262ZM36.5976 13.8539H37.7226C38.2865 13.8876 38.8355 13.6655 39.2172 13.2492C39.5989 12.8328 39.7728 12.2667 39.6904 11.7079C39.7668 11.1514 39.5904 10.5899 39.2096 10.177C38.8289 9.76412 38.2835 9.54299 37.7226 9.57411H36.5976V13.8539Z" fill="white"/>
<path d="M41.6805 12.4443C41.6033 11.6372 41.9903 10.8561 42.6792 10.4285C43.3682 10.001 44.2399 10.001 44.9288 10.4285C45.6178 10.8561 46.0048 11.6372 45.9276 12.4443C46.0062 13.2523 45.6196 14.0349 44.93 14.4633C44.2405 14.8918 43.3676 14.8918 42.678 14.4633C41.9885 14.0349 41.6018 13.2523 41.6805 12.4443ZM45.0135 12.4443C45.0135 11.4682 44.575 10.8974 43.8055 10.8974C43.033 10.8974 42.5985 11.4682 42.5985 12.4443C42.5985 13.4282 43.0331 13.9946 43.8055 13.9946C44.575 13.9946 45.0135 13.4243 45.0135 12.4443Z" fill="white"/>
<path d="M51.5732 14.6978H50.6514L49.7207 11.3813H49.6504L48.7236 14.6978H47.8105L46.5693 10.1948H47.4707L48.2773 13.6308H48.3438L49.2695 10.1948H50.1221L51.0479 13.6308H51.1182L51.9209 10.1948H52.8096L51.5732 14.6978Z" fill="white"/>
<path d="M53.8535 10.1949H54.709V10.9102H54.7754C55.0063 10.3836 55.546 10.0614 56.1191 10.108C56.563 10.0746 56.9979 10.2449 57.3011 10.5707C57.6043 10.8965 57.7429 11.3425 57.6777 11.7828V14.6978H56.7891V12.0059C56.7891 11.2823 56.4746 10.9224 55.8174 10.9224C55.5164 10.9084 55.2242 11.0266 55.0175 11.2459C54.8109 11.4652 54.7103 11.7639 54.7422 12.0635V14.6978H53.8535V10.1949Z" fill="white"/>
<path d="M59.0938 8.43701H59.9824V14.6978H59.0938V8.43701Z" fill="white"/>
<path d="M61.2176 12.4444C61.1404 11.6372 61.5275 10.8561 62.2165 10.4286C62.9055 10.001 63.7772 10.001 64.4662 10.4286C65.1552 10.8561 65.5423 11.6372 65.4651 12.4444C65.5437 13.2524 65.157 14.035 64.4674 14.4634C63.7778 14.8918 62.9049 14.8918 62.2153 14.4634C61.5257 14.035 61.139 13.2524 61.2176 12.4444ZM64.5506 12.4444C64.5506 11.4683 64.1121 10.8975 63.3426 10.8975C62.5701 10.8975 62.1356 11.4683 62.1356 12.4444C62.1356 13.4283 62.5701 13.9947 63.3426 13.9947C64.1121 13.9947 64.5506 13.4244 64.5506 12.4444Z" fill="white"/>
<path d="M66.4009 13.4243C66.4009 12.6138 67.0044 12.1465 68.0757 12.0801L69.2954 12.0098V11.6211C69.2954 11.1455 68.981 10.877 68.3735 10.877C67.8774 10.877 67.5337 11.0591 67.4351 11.3774H66.5747C66.6655 10.604 67.3931 10.1079 68.4145 10.1079C69.5435 10.1079 70.1802 10.6699 70.1802 11.6211V14.6978H69.3247V14.0649H69.2544C68.9638 14.5271 68.4472 14.7972 67.9019 14.7719C67.5196 14.8117 67.1384 14.6879 66.8524 14.4311C66.5664 14.1744 66.4024 13.8086 66.4009 13.4243ZM69.2954 13.0395V12.6631L68.1958 12.7334C67.5757 12.7749 67.2944 12.9858 67.2944 13.3828C67.2944 13.7881 67.646 14.0239 68.1294 14.0239C68.4156 14.0529 68.7013 13.9645 68.9211 13.7789C69.1409 13.5933 69.276 13.3265 69.2954 13.0395Z" fill="white"/>
<path d="M71.3481 12.4444C71.3481 11.0215 72.0796 10.1201 73.2173 10.1201C73.7918 10.0937 74.3298 10.4015 74.5981 10.9101H74.6646V8.43701H75.5532V14.6978H74.7017V13.9863H74.6314C74.3427 14.4907 73.7981 14.7934 73.2173 14.772C72.0718 14.772 71.3481 13.8706 71.3481 12.4444ZM72.2661 12.4444C72.2661 13.3994 72.7163 13.9741 73.4693 13.9741C74.2183 13.9741 74.6812 13.3911 74.6812 12.4483C74.6812 11.5098 74.2134 10.9185 73.4693 10.9185C72.7212 10.9185 72.2661 11.4971 72.2661 12.4444H72.2661Z" fill="white"/>
<path d="M79.2298 12.4443C79.1526 11.6372 79.5396 10.8561 80.2285 10.4285C80.9175 10.001 81.7892 10.001 82.4781 10.4285C83.1671 10.8561 83.5541 11.6372 83.4769 12.4443C83.5556 13.2523 83.1689 14.0349 82.4794 14.4633C81.7898 14.8918 80.9169 14.8918 80.2273 14.4633C79.5378 14.0349 79.1511 13.2523 79.2298 12.4443ZM82.5628 12.4443C82.5628 11.4682 82.1243 10.8974 81.3548 10.8974C80.5823 10.8974 80.1478 11.4682 80.1478 12.4443C80.1478 13.4282 80.5824 13.9946 81.3548 13.9946C82.1243 13.9946 82.5628 13.4243 82.5628 12.4443Z" fill="white"/>
<path d="M84.6694 10.1949H85.5249V10.9102H85.5913C85.8222 10.3836 86.3619 10.0614 86.9351 10.108C87.3789 10.0746 87.8138 10.2449 88.117 10.5707C88.4202 10.8965 88.5588 11.3425 88.4936 11.7828V14.6978H87.605V12.0059C87.605 11.2823 87.2905 10.9224 86.6333 10.9224C86.3323 10.9084 86.0401 11.0266 85.8335 11.2459C85.6268 11.4652 85.5262 11.7639 85.5581 12.0635V14.6978H84.6694V10.1949Z" fill="white"/>
<path d="M93.5151 9.07373V10.2153H94.4907V10.9639H93.5151V13.2793C93.5151 13.751 93.7095 13.9575 94.1519 13.9575C94.2651 13.9572 94.3783 13.9503 94.4907 13.937V14.6772C94.3311 14.7058 94.1694 14.721 94.0073 14.7226C93.019 14.7226 92.6255 14.375 92.6255 13.5068V10.9638H91.9106V10.2153H92.6255V9.07373H93.5151Z" fill="white"/>
<path d="M95.7046 8.43701H96.5854V10.9185H96.6558C96.8978 10.3872 97.4469 10.0646 98.0288 10.1118C98.47 10.0878 98.8991 10.2618 99.199 10.5864C99.4989 10.9111 99.6384 11.3525 99.5795 11.7905V14.6978H98.69V12.0098C98.69 11.2905 98.355 10.9263 97.7271 10.9263C97.4179 10.9009 97.1133 11.0133 96.8947 11.2334C96.6761 11.4535 96.5658 11.7589 96.5933 12.0679V14.6978H95.7046L95.7046 8.43701Z" fill="white"/>
<path d="M104.761 13.482C104.512 14.3314 103.69 14.8802 102.81 14.7847C102.21 14.8006 101.633 14.5517 101.232 14.1041C100.832 13.6566 100.648 13.0555 100.73 12.4605C100.65 11.8639 100.833 11.2619 101.231 10.8105C101.63 10.3592 102.204 10.1029 102.806 10.108C104.059 10.108 104.815 10.964 104.815 12.378V12.6881H101.635V12.7379C101.607 13.072 101.721 13.4025 101.95 13.6481C102.178 13.8937 102.499 14.0316 102.835 14.0279C103.269 14.0801 103.693 13.8644 103.906 13.482L104.761 13.482ZM101.635 12.0308H103.91C103.932 11.7252 103.825 11.4243 103.614 11.2021C103.403 10.98 103.108 10.8573 102.801 10.8643C102.491 10.8604 102.192 10.9821 101.972 11.2017C101.753 11.4214 101.631 11.7203 101.635 12.0308H101.635Z" fill="white"/>
</svg>
