<svg width="133" height="40" viewBox="0 0 133 40" fill="none" xmlns="http://www.w3.org/2000/svg">
<path d="M127.258 39.3659H5.30725C2.62432 39.3659 0.429199 37.1708 0.429199 34.4879V5.2196C0.429199 2.53667 2.62432 0.341553 5.30725 0.341553H127.258C129.941 0.341553 132.137 2.53667 132.137 5.2196V34.4879C132.137 37.1708 129.941 39.3659 127.258 39.3659Z" fill="black"/>
<path d="M127.258 1.12204C129.522 1.12204 131.356 2.95619 131.356 5.2196V34.4879C131.356 36.7513 129.522 38.5855 127.258 38.5855H5.30725C3.04383 38.5855 1.20969 36.7513 1.20969 34.4879V5.2196C1.20969 2.95619 3.04383 1.12204 5.30725 1.12204H127.258ZM127.258 0.341553H5.30725C2.62432 0.341553 0.429199 2.53667 0.429199 5.2196V34.4879C0.429199 37.1708 2.62432 39.3659 5.30725 39.3659H127.258C129.941 39.3659 132.137 37.1708 132.137 34.4879V5.2196C132.137 2.53667 129.941 0.341553 127.258 0.341553Z" fill="#A6A6A6"/>
<path d="M46.6925 10.3318C46.6925 11.1513 46.4486 11.8049 45.9608 12.283C45.4144 12.8586 44.6925 13.1513 43.8144 13.1513C42.9656 13.1513 42.2534 12.8586 41.6583 12.2732C41.0632 11.6878 40.7705 10.9561 40.7705 10.0976C40.7705 9.22931 41.0632 8.50736 41.6583 7.92199C42.2534 7.33663 42.9656 7.04395 43.8144 7.04395C44.2339 7.04395 44.6339 7.12199 45.0144 7.28785C45.3949 7.4537 45.6973 7.66834 45.9315 7.94151L45.4144 8.45858C45.0242 8.00004 44.4973 7.7659 43.8144 7.7659C43.1998 7.7659 42.6632 7.98053 42.2144 8.41956C41.7656 8.84882 41.5412 9.41468 41.5412 10.1074C41.5412 10.8 41.7656 11.3659 42.2144 11.7952C42.6632 12.2244 43.1998 12.4488 43.8144 12.4488C44.4681 12.4488 45.0144 12.2342 45.4534 11.7952C45.7364 11.5122 45.9022 11.1122 45.9412 10.6049H43.8144V9.90248H46.6534C46.6827 10.0488 46.6925 10.1952 46.6925 10.3318Z" fill="white" stroke="white" stroke-width="0.5"/>
<path d="M51.19 7.89285H48.5266V9.74651H50.9266V10.4489H48.5266V12.3026H51.19V13.0246H47.7754V7.1709H51.19V7.89285Z" fill="white" stroke="white" stroke-width="0.5"/>
<path d="M54.3609 13.0246H53.6097V7.89285H51.9707V7.1709H55.9902V7.89285H54.3512V13.0246H54.3609Z" fill="white" stroke="white" stroke-width="0.5"/>
<path d="M58.9072 13.0246V7.1709H59.6585V13.0246H58.9072Z" fill="white" stroke="white" stroke-width="0.5"/>
<path d="M62.9947 13.0246H62.2435V7.89285H60.6045V7.1709H64.624V7.89285H62.985V13.0246H62.9947Z" fill="white" stroke="white" stroke-width="0.5"/>
<path d="M72.2435 12.2635C71.6679 12.8586 70.9557 13.1513 70.0972 13.1513C69.2386 13.1513 68.5264 12.8586 67.9508 12.2635C67.3752 11.6683 67.0923 10.9464 67.0923 10.0976C67.0923 9.23907 67.3752 8.51712 67.9508 7.93175C68.5264 7.33663 69.2386 7.04395 70.0972 7.04395C70.9459 7.04395 71.6581 7.33663 72.2435 7.93175C72.8191 8.52687 73.1118 9.24882 73.1118 10.0976C73.1118 10.9561 72.8191 11.6781 72.2435 12.2635ZM68.5069 11.7757C68.9362 12.2147 69.4728 12.4293 70.0972 12.4293C70.7216 12.4293 71.2581 12.2147 71.6874 11.7757C72.1167 11.3366 72.3411 10.7805 72.3411 10.0976C72.3411 9.41468 72.1264 8.85858 71.6874 8.41956C71.2581 7.98053 70.7216 7.7659 70.0972 7.7659C69.4728 7.7659 68.9362 7.98053 68.5069 8.41956C68.0777 8.85858 67.8533 9.41468 67.8533 10.0976C67.8533 10.7805 68.0777 11.3366 68.5069 11.7757Z" fill="white" stroke="white" stroke-width="0.5"/>
<path d="M74.1655 13.0246V7.1709H75.0826L77.9314 11.727H77.9607L77.9314 10.5953V7.1709H78.6826V13.0246H77.9021L74.9265 8.25383H74.8972L74.9265 9.38553V13.0343H74.1655V13.0246Z" fill="white" stroke="white" stroke-width="0.5"/>
<path d="M66.9073 21.561C64.6146 21.561 62.7414 23.3073 62.7414 25.7073C62.7414 28.0975 64.6146 29.8536 66.9073 29.8536C69.2 29.8536 71.0731 28.0975 71.0731 25.7073C71.0731 23.3073 69.2 21.561 66.9073 21.561ZM66.9073 28.2244C65.6488 28.2244 64.5658 27.1902 64.5658 25.7073C64.5658 24.2146 65.6488 23.1902 66.9073 23.1902C68.1658 23.1902 69.2488 24.2146 69.2488 25.7073C69.2488 27.1902 68.1658 28.2244 66.9073 28.2244ZM57.8244 21.561C55.5317 21.561 53.6585 23.3073 53.6585 25.7073C53.6585 28.0975 55.5317 29.8536 57.8244 29.8536C60.1171 29.8536 61.9902 28.0975 61.9902 25.7073C61.9902 23.3073 60.1171 21.561 57.8244 21.561ZM57.8244 28.2244C56.5658 28.2244 55.4829 27.1902 55.4829 25.7073C55.4829 24.2146 56.5658 23.1902 57.8244 23.1902C59.0829 23.1902 60.1658 24.2146 60.1658 25.7073C60.1658 27.1902 59.0732 28.2244 57.8244 28.2244ZM47.0146 22.839V24.5951H51.2292C51.1024 25.5902 50.7707 26.3122 50.2732 26.8097C49.6585 27.4244 48.7024 28.0975 47.0244 28.0975C44.4292 28.0975 42.4 26.0097 42.4 23.4146C42.4 20.8195 44.4292 18.7317 47.0244 18.7317C48.4195 18.7317 49.4439 19.278 50.1951 19.9902L51.4341 18.7512C50.3805 17.7463 48.9853 16.9756 47.0146 16.9756C43.4634 16.9756 40.478 19.8634 40.478 23.4244C40.478 26.9756 43.4634 29.8731 47.0146 29.8731C48.9366 29.8731 50.3805 29.2488 51.5122 28.0683C52.6732 26.9073 53.0341 25.2683 53.0341 23.9512C53.0341 23.5414 53.0049 23.161 52.9366 22.8488H47.0146V22.839ZM91.2195 24.2049C90.878 23.278 89.8244 21.561 87.6683 21.561C85.5317 21.561 83.7561 23.239 83.7561 25.7073C83.7561 28.0292 85.5122 29.8536 87.8731 29.8536C89.7756 29.8536 90.878 28.6927 91.3268 28.0195L89.9122 27.0731C89.4439 27.7658 88.8 28.2244 87.8731 28.2244C86.9463 28.2244 86.2829 27.8049 85.8634 26.9658L91.4146 24.6731L91.2195 24.2049ZM85.561 25.5805C85.5122 23.9805 86.8 23.161 87.7268 23.161C88.4488 23.161 89.0634 23.5219 89.2683 24.039L85.561 25.5805ZM81.0439 29.6097H82.8683V17.4146H81.0439V29.6097ZM78.0585 22.4878H78C77.5902 22 76.8097 21.561 75.8146 21.561C73.7366 21.561 71.8341 23.3853 71.8341 25.7268C71.8341 28.0488 73.7366 29.8634 75.8146 29.8634C76.8097 29.8634 77.5902 29.4244 78 28.917H78.0585V29.5122C78.0585 31.1024 77.2097 31.9512 75.8439 31.9512C74.7317 31.9512 74.039 31.1512 73.7561 30.478L72.1658 31.1414C72.6244 32.2439 73.8341 33.5902 75.8439 33.5902C77.9805 33.5902 79.7853 32.3317 79.7853 29.2683V21.8146H78.0585V22.4878ZM75.9707 28.2244C74.7122 28.2244 73.6585 27.1707 73.6585 25.7268C73.6585 24.2634 74.7122 23.2 75.9707 23.2C77.2097 23.2 78.1853 24.2731 78.1853 25.7268C78.1853 27.1707 77.2097 28.2244 75.9707 28.2244ZM99.7561 17.4146H95.3951V29.6097H97.2195V24.9853H99.7658C101.785 24.9853 103.766 23.5219 103.766 21.2C103.766 18.878 101.776 17.4146 99.7561 17.4146ZM99.8049 23.2878H97.2195V19.1024H99.8049C101.171 19.1024 101.941 20.2341 101.941 21.1902C101.932 22.1463 101.161 23.2878 99.8049 23.2878ZM111.054 21.5414C109.737 21.5414 108.371 22.1268 107.805 23.4049L109.424 24.078C109.766 23.4049 110.41 23.1805 111.083 23.1805C112.029 23.1805 112.985 23.7463 112.995 24.7512V24.878C112.663 24.6927 111.961 24.4097 111.093 24.4097C109.346 24.4097 107.58 25.3658 107.58 27.1512C107.58 28.7805 109.005 29.8341 110.605 29.8341C111.824 29.8341 112.507 29.2878 112.927 28.6439H112.985V29.5902H114.741V24.917C114.751 22.7512 113.141 21.5414 111.054 21.5414ZM110.829 28.2244C110.234 28.2244 109.405 27.9219 109.405 27.1902C109.405 26.2536 110.439 25.8927 111.337 25.8927C112.137 25.8927 112.517 26.0683 112.995 26.3024C112.859 27.4244 111.883 28.2244 110.829 28.2244ZM121.161 21.8049L119.073 27.0927H119.015L116.849 21.8049H114.888L118.137 29.2L116.283 33.3073H118.185L123.19 21.8049H121.161ZM104.761 29.6097H106.585V17.4146H104.761V29.6097Z" fill="white"/>
<path d="M10.6148 7.69743C10.3319 7.99987 10.166 8.46817 10.166 9.06329V30.6438C10.166 31.2487 10.3319 31.7169 10.6148 32.0096L10.6831 32.0779L22.7709 19.9999V19.8535V19.7072L10.6831 7.61938L10.6148 7.69743Z" fill="url(#paint0_linear)"/>
<path d="M26.8003 24.0292L22.771 19.9999V19.8536V19.7072L26.8003 15.678L26.8881 15.7268L31.6588 18.439C33.0246 19.2097 33.0246 20.478 31.6588 21.2585L26.8881 23.9707L26.8003 24.0292Z" fill="url(#paint1_linear)"/>
<path d="M26.8977 23.9706L22.7806 19.8535L10.6147 32.0096C11.0635 32.4877 11.805 32.5462 12.644 32.0681L26.8977 23.9706Z" fill="url(#paint2_linear)"/>
<path d="M26.8977 15.7365L12.644 7.63896C11.805 7.16091 11.0635 7.21945 10.6147 7.6975L22.7708 19.8536L26.8977 15.7365Z" fill="url(#paint3_linear)"/>
<path opacity="0.2" d="M26.8001 23.8828L12.6343 31.9316C11.844 32.3804 11.1318 32.3511 10.683 31.9413L10.6147 32.0096L10.683 32.0779C11.1416 32.4877 11.844 32.517 12.6343 32.0682L26.8879 23.9706L26.8001 23.8828Z" fill="black"/>
<path opacity="0.12" d="M10.6148 31.8729C10.3319 31.5705 10.166 31.1022 10.166 30.5071V30.6534C10.166 31.2583 10.3319 31.7266 10.6148 32.0193L10.6831 31.951L10.6148 31.8729Z" fill="black"/>
<path opacity="0.12" d="M31.6686 21.1218L26.8003 23.8828L26.8881 23.9706L31.6588 21.2584C32.3418 20.8681 32.6832 20.3608 32.6832 19.8535C32.6344 20.3121 32.2832 20.7706 31.6686 21.1218Z" fill="black"/>
<path opacity="0.25" d="M12.6441 7.77561L31.6685 18.5854C32.2831 18.9366 32.6343 19.3854 32.6928 19.8537C32.6928 19.3463 32.3514 18.8293 31.6685 18.4488L12.6441 7.63903C11.2782 6.8683 10.166 7.5122 10.166 9.07317V9.21952C10.166 7.64878 11.2782 7.00488 12.6441 7.77561Z" fill="white"/>
<defs>
<linearGradient id="paint0_linear" x1="17.8581" y1="8.83704" x2="7.49732" y2="19.1979" gradientUnits="userSpaceOnUse">
<stop stop-color="#00A0FF"/>
<stop offset="0.00657445" stop-color="#00A1FF"/>
<stop offset="0.2601" stop-color="#00BEFF"/>
<stop offset="0.5122" stop-color="#00D2FF"/>
<stop offset="0.7604" stop-color="#00DFFF"/>
<stop offset="1" stop-color="#00E3FF"/>
</linearGradient>
<linearGradient id="paint1_linear" x1="33.4421" y1="19.8535" x2="9.83539" y2="19.8535" gradientUnits="userSpaceOnUse">
<stop stop-color="#FFE000"/>
<stop offset="0.4087" stop-color="#FFBD00"/>
<stop offset="0.7754" stop-color="#FFA500"/>
<stop offset="1" stop-color="#FF9C00"/>
</linearGradient>
<linearGradient id="paint2_linear" x1="24.6542" y1="23.7315" x2="6.96274" y2="41.423" gradientUnits="userSpaceOnUse">
<stop stop-color="#FF3A44"/>
<stop offset="1" stop-color="#C31162"/>
</linearGradient>
<linearGradient id="paint3_linear" x1="7.55211" y1="5.82309" x2="15.4521" y2="13.7231" gradientUnits="userSpaceOnUse">
<stop stop-color="#32A071"/>
<stop offset="0.0685" stop-color="#2DA771"/>
<stop offset="0.4762" stop-color="#15CF74"/>
<stop offset="0.8009" stop-color="#06E775"/>
<stop offset="1" stop-color="#00F076"/>
</linearGradient>
</defs>
</svg>
